<svg width="24" height="24" viewBox="0 0 24 24" fill="none" stroke="#B5B8C0" strokeWidth="1.5" strokeLinecap="round" stroke-linejoin="round" xmlns="http://www.w3.org/2000/svg">
<path d="M10.07 2.81997L3.13999 8.36997C2.35999 8.98997 1.85999 10.3 2.02999 11.28L3.35999 19.24C3.59999 20.66 4.95999 21.81 6.39999 21.81H17.6C19.03 21.81 20.4 20.65 20.64 19.24L21.97 11.28C22.13 10.3 21.63 8.98997 20.86 8.36997L13.93 2.82997C12.86 1.96997 11.13 1.96997 10.07 2.81997Z" />
<path d="M12 15.5C12.663 15.5 13.2989 15.2366 13.7678 14.7678C14.2366 14.2989 14.5 13.663 14.5 13C14.5 12.337 14.2366 11.7011 13.7678 11.2322C13.2989 10.7634 12.663 10.5 12 10.5C11.337 10.5 10.7011 10.7634 10.2322 11.2322C9.76339 11.7011 9.5 12.337 9.5 13C9.5 13.663 9.76339 14.2989 10.2322 14.7678C10.7011 15.2366 11.337 15.5 12 15.5Z"/>
</svg>
