<svg width="25" height="25" viewBox="0 0 25 25" fill="none"  xmlns="http://www.w3.org/2000/svg">
<path d="M17.7375 0H7.2625C2.7125 0 0 2.7125 0 7.2625V17.725C0 22.2875 2.7125 25 7.2625 25H17.725C22.275 25 24.9875 22.2875 24.9875 17.7375V7.2625C25 2.7125 22.2875 0 17.7375 0ZM17.2 17.2C17.125 18.2625 17.0375 19.5875 14.6375 19.5875H10.3625C7.975 19.5875 7.875 18.2625 7.8 17.2L7.4125 12.25C7.4007 12.0914 7.42121 11.9321 7.47277 11.7817C7.52434 11.6313 7.6059 11.493 7.7125 11.375C7.81903 11.2594 7.94859 11.1675 8.09284 11.105C8.23709 11.0426 8.39282 11.0111 8.55 11.0125H16.45C16.7625 11.0125 17.075 11.15 17.2875 11.375C17.5 11.6125 17.6125 11.925 17.5875 12.2375L17.2 17.2ZM18.5 9.775H18.425C17.125 9.65 15.9375 9.5625 14.8 9.5125C13.2722 9.43121 11.7415 9.4187 10.2125 9.475C9.4625 9.5125 8.7 9.5625 7.95 9.6375L6.5875 9.775H6.5C6.0625 9.775 5.6875 9.45 5.65 9C5.6 8.5375 5.95 8.1125 6.4125 8.075L7.775 7.9375C8.3125 7.8875 8.8375 7.85 9.375 7.825L9.475 7.2375C9.575 6.6125 9.7625 5.4125 11.6375 5.4125H13.375C15.2625 5.4125 15.45 6.65 15.5375 7.25L15.6375 7.85C16.575 7.9 17.5375 7.975 18.5875 8.075C19.0625 8.125 19.4 8.5375 19.3625 9.0125C19.3125 9.45 18.9375 9.775 18.5 9.775Z" />
</svg>
