<svg width="24" height="24" viewBox="0 0 24 24" fill="none" xmlns="http://www.w3.org/2000/svg">
<path d="M15 22.749H9C7.68 22.749 6.58 22.619 5.65 22.339C5.48555 22.2884 5.34289 22.184 5.24495 22.0425C5.14701 21.901 5.09948 21.7307 5.11 21.559C5.36 18.569 8.39 16.219 12 16.219C15.61 16.219 18.63 18.559 18.89 21.559C18.92 21.919 18.7 22.239 18.35 22.339C17.42 22.619 16.32 22.749 15 22.749ZM6.72 21.059C7.38 21.189 8.13 21.249 9 21.249H15C15.87 21.249 16.62 21.189 17.28 21.059C16.75 19.139 14.56 17.719 12 17.719C9.44 17.719 7.25 19.139 6.72 21.059Z" fill="#B5B8C0"/>
<path d="M15 2H9C4 2 2 4 2 9V15C2 18.78 3.14 20.85 5.86 21.62C6.08 19.02 8.75 16.97 12 16.97C15.25 16.97 17.92 19.02 18.14 21.62C20.86 20.85 22 18.78 22 15V9C22 4 20 2 15 2ZM12 14.17C10.02 14.17 8.42 12.56 8.42 10.58C8.42 8.6 10.02 7 12 7C13.98 7 15.58 8.6 15.58 10.58C15.58 12.56 13.98 14.17 12 14.17Z" stroke="#B5B8C0" strokeWidth="1.5" strokeLinecap="round" stroke-linejoin="round"/>
<path d="M12.002 14.92C10.8527 14.9174 9.75136 14.4589 8.93962 13.6453C8.12787 12.8317 7.67199 11.7293 7.672 10.58C7.672 8.19 9.612 6.25 12.002 6.25C14.392 6.25 16.332 8.19 16.332 10.58C16.332 11.7293 15.8761 12.8317 15.0644 13.6453C14.2526 14.4589 13.1513 14.9174 12.002 14.92ZM12.002 7.75C11.2631 7.76963 10.5611 8.07692 10.0455 8.60645C9.52985 9.13597 9.2413 9.84589 9.2413 10.585C9.2413 11.3241 9.52985 12.034 10.0455 12.5636C10.5611 13.0931 11.2631 13.4004 12.002 13.42C12.7408 13.4004 13.4428 13.0931 13.9585 12.5636C14.4741 12.034 14.7627 11.3241 14.7627 10.585C14.7627 9.84589 14.4741 9.13597 13.9585 8.60645C13.4428 8.07692 12.7408 7.76963 12.002 7.75Z" fill="#B5B8C0"/>
</svg>
