<svg width="24" height="24" viewBox="0 0 24 24" fill="none" stroke="#B5B8C0" stroke-width="1.5" stroke-linecap="round" stroke-linejoin="round" xmlns="http://www.w3.org/2000/svg">
<path d="M17 11.84H14.32C13.61 11.84 13.13 11.3 13.13 10.65V9.15997C13.13 8.50997 13.61 7.96997 14.32 7.96997H15.81C16.46 7.96997 17 8.50997 17 9.15997V11.84ZM17 11.84C17 14.63 16.48 15.1 14.91 16.03M10.86 11.84H8.18001C7.47001 11.84 6.99001 11.3 6.99001 10.65V9.15997C6.99001 8.50997 7.47001 7.96997 8.18001 7.96997H9.67001C10.32 7.96997 10.86 8.50997 10.86 9.15997V11.84ZM10.86 11.84C10.86 14.63 10.34 15.1 8.77001 16.03" />
<path d="M12 22C17.523 22 22 17.523 22 12C22 6.477 17.523 2 12 2C6.477 2 2 6.477 2 12C2 17.523 6.477 22 12 22Z" />
</svg>
