<svg width="24" height="24" viewBox="0 0 24 24" fill="#B5B8C0"
 xmlns="http://www.w3.org/2000/svg">
<path d="M15 22.75H9C3.57 22.75 1.25 20.43 1.25 15V9C1.25 3.57 3.57 1.25 9 1.25H11C11.41 1.25 11.75 1.59 11.75 2C11.75 2.41 11.41 2.75 11 2.75H9C4.39 2.75 2.75 4.39 2.75 9V15C2.75 19.61 4.39 21.25 9 21.25H15C19.61 21.25 21.25 19.61 21.25 15V13C21.25 12.59 21.59 12.25 22 12.25C22.41 12.25 22.75 12.59 22.75 13V15C22.75 20.43 20.43 22.75 15 22.75Z" />
<path d="M8.50008 17.689C7.89008 17.689 7.33008 17.469 6.92008 17.069C6.43008 16.579 6.22008 15.869 6.33008 15.119L6.76008 12.109C6.84008 11.529 7.22008 10.779 7.63008 10.369L15.5101 2.48896C17.5001 0.49896 19.5201 0.49896 21.5101 2.48896C22.6001 3.57896 23.0901 4.68896 22.9901 5.79896C22.9001 6.69896 22.4201 7.57896 21.5101 8.47896L13.6301 16.359C13.2201 16.769 12.4701 17.149 11.8901 17.229L8.88008 17.659C8.75008 17.689 8.62008 17.689 8.50008 17.689ZM16.5701 3.54896L8.69008 11.429C8.50008 11.619 8.28008 12.059 8.24008 12.319L7.81008 15.329C7.77008 15.619 7.83008 15.859 7.98008 16.009C8.13008 16.159 8.37008 16.219 8.66008 16.179L11.6701 15.749C11.9301 15.709 12.3801 15.489 12.5601 15.299L20.4401 7.41896C21.0901 6.76896 21.4301 6.18896 21.4801 5.64896C21.5401 4.99896 21.2001 4.30896 20.4401 3.53896C18.8401 1.93896 17.7401 2.38896 16.5701 3.54896Z" />
<path d="M19.85 9.83003C19.78 9.83003 19.71 9.82003 19.65 9.80003C18.3504 9.42998 17.1668 8.73425 16.2113 7.77875C15.2558 6.82326 14.5601 5.63964 14.19 4.34003C14.1374 4.14779 14.1625 3.94259 14.2597 3.76864C14.357 3.59469 14.5187 3.4659 14.71 3.41003C15.11 3.30003 15.52 3.53003 15.63 3.93003C16.23 6.06003 17.92 7.75003 20.05 8.35003C20.45 8.46003 20.68 8.88003 20.57 9.28003C20.48 9.62003 20.18 9.83003 19.85 9.83003Z" />
</svg>
