<svg width="24" height="24" viewBox="0 0 24 24" stroke="#B5B8C0" fill="none" xmlns="http://www.w3.org/2000/svg">
<path d="M9 15L15 9.00002M3.989 14.66L2.469 13.14C1.849 12.52 1.849 11.5 2.469 10.88L3.989 9.36002C4.249 9.10002 4.459 8.59002 4.459 8.23002V6.08002C4.459 5.20002 5.179 4.48002 6.059 4.48002H8.209C8.569 4.48002 9.079 4.27002 9.339 4.01002L10.859 2.49002C11.479 1.87002 12.499 1.87002 13.119 2.49002L14.639 4.01002C14.899 4.27002 15.409 4.48002 15.769 4.48002H17.919C18.799 4.48002 19.519 5.20002 19.519 6.08002V8.23002C19.519 8.59002 19.729 9.10002 19.989 9.36002L21.509 10.88C22.129 11.5 22.129 12.52 21.509 13.14L19.989 14.66C19.729 14.92 19.519 15.43 19.519 15.79V17.94C19.519 18.82 18.799 19.54 17.919 19.54H15.769C15.409 19.54 14.899 19.75 14.639 20.01L13.119 21.53C12.499 22.15 11.479 22.15 10.859 21.53L9.339 20.01C9.079 19.75 8.569 19.54 8.209 19.54H6.059C5.179 19.54 4.459 18.82 4.459 17.94V15.79C4.459 15.42 4.249 14.91 3.989 14.66Z"  strokeWidth="1.5" strokeLinecap="round" strokeLinejoin="round"/>
<path d="M14.495 14.5H14.504M9.495 9.5H9.503"  strokeWidth="2" strokeLinecap="round" strokeLinejoin="round"/>
</svg>
