<svg width="20" height="20" viewBox="0 0 20 20" fill="none" xmlns="http://www.w3.org/2000/svg">
<g clipPath="url(#clip0_344_1823)">
<path d="M18.3334 18.3333L16.6667 16.6666M9.58341 17.5C10.623 17.5 11.6525 17.2952 12.613 16.8973C13.5735 16.4995 14.4462 15.9164 15.1813 15.1812C15.9165 14.4461 16.4996 13.5734 16.8975 12.6129C17.2953 11.6524 17.5001 10.6229 17.5001 9.58329C17.5001 8.54366 17.2953 7.51421 16.8975 6.55372C16.4996 5.59322 15.9165 4.72049 15.1813 3.98536C14.4462 3.25023 13.5735 2.6671 12.613 2.26925C11.6525 1.8714 10.623 1.66663 9.58341 1.66663C7.48378 1.66663 5.47015 2.5007 3.98549 3.98536C2.50082 5.47003 1.66675 7.48366 1.66675 9.58329C1.66675 11.6829 2.50082 13.6966 3.98549 15.1812C5.47015 16.6659 7.48378 17.5 9.58341 17.5Z" stroke="#B9BCC7" strokeWidth="1.5" strokeLinecap="round" stroke-linejoin="round"/>
</g>
<defs>
<clipPath id="clip0_344_1823">
<rect width="20" height="20" fill="white"/>
</clipPath>
</defs>
</svg>
