<svg width="41" height="41" viewBox="0 0 41 41" fill="none" xmlns="http://www.w3.org/2000/svg">
<path d="M29.104 0H11.9164C4.45072 0 0 4.4485 0 11.9105V29.069C0 36.5515 4.45072 41 11.9164 41H29.0835C36.5492 41 40.9999 36.5515 40.9999 29.0895V11.9105C41.0204 4.4485 36.5697 0 29.104 0ZM28.2221 28.208C28.099 29.9505 27.9554 32.1235 24.0175 32.1235H17.003C13.0855 32.1235 12.9214 29.9505 12.7984 28.208L12.1626 20.09C12.1432 19.83 12.1768 19.5687 12.2615 19.322C12.3461 19.0754 12.4799 18.8485 12.6548 18.655C12.8296 18.4655 13.0422 18.3146 13.2789 18.2122C13.5156 18.1098 13.7711 18.0581 14.029 18.0605H26.9914C27.5042 18.0605 28.017 18.286 28.3656 18.655C28.7143 19.0445 28.8989 19.557 28.8579 20.0695L28.2221 28.208ZM30.3551 16.031H30.2321C28.099 15.826 26.1505 15.6825 24.2841 15.6005C21.7772 15.4672 19.2656 15.4467 16.7569 15.539C15.5262 15.6005 14.2751 15.6825 13.0445 15.8055L10.8089 16.031H10.6653C9.94746 16.031 9.33215 15.498 9.27062 14.76C9.18858 14.0015 9.76287 13.3045 10.5217 13.243L12.7574 13.0175C13.6393 12.9355 14.5007 12.874 15.3827 12.833L15.5467 11.8695C15.7108 10.8445 16.0185 8.8765 19.095 8.8765H21.9459C25.043 8.8765 25.3506 10.906 25.4942 11.89L25.6583 12.874C27.1966 12.956 28.7758 13.079 30.4987 13.243C31.2781 13.325 31.8319 14.0015 31.7703 14.7805C31.6883 15.498 31.073 16.031 30.3551 16.031Z" fill="#FF0000"/>
</svg>
